HIERARCHY
ROOT pelvis
{
  OFFSET 0 100 0
  CHANNELS 6 Xposition Yposition Zposition Zrotation Xrotation Yrotation
  JOINT pelvis_right_femur
  {
    OFFSET -10.78128 -3.44521 -0.5502486
    CHANNELS 3 Zrotation Xrotation Yrotation
    JOINT right_femur_tibia
    {
      OFFSET -0.8047443 -44.0398 -0.1307829
      CHANNELS 3 Zrotation Xrotation Yrotation
      JOINT right_tibia_foot
      {
        OFFSET 3.006224 -47.83518 -5
        CHANNELS 3 Zrotation Xrotation Yrotation
        End Site
        {
          OFFSET 0 -5 15
        }
      }
    }
  }
  JOINT pelvis_left_femur
  {
    OFFSET 10.78128 -3.44521 -0.5502486
    CHANNELS 3 Zrotation Xrotation Yrotation
    JOINT left_femur_tibia
    {
      OFFSET 0.8047443 -44.0398 -0.1307829
      CHANNELS 3 Zrotation Xrotation Yrotation
      JOINT left_tibia_foot
      {
        OFFSET -4.370144 -48.10324 -4.275266
        CHANNELS 3 Zrotation Xrotation Yrotation
        End Site
        {
          OFFSET 0 -5 15
        }
      }
    }
  }
  JOINT pelvis_spine1
  {
    OFFSET 0 6.468898 -3.129235
    CHANNELS 3 Zrotation Xrotation Yrotation
    JOINT spine1
    {
      OFFSET 0 23.15396 4.99043
      CHANNELS 3 Zrotation Xrotation Yrotation
      JOINT spine2
      {
        OFFSET 0 20.79997 -5.064912
        CHANNELS 3 Zrotation Xrotation Yrotation
        JOINT neck
        {
          OFFSET 0 14.38658 9.616178
          CHANNELS 3 Zrotation Xrotation Yrotation
          End Site
          {
            OFFSET 0 20 0
          }
        }
      }
      JOINT right_manubrium
      {
        OFFSET -5.722621 16.35077 3.967754
        CHANNELS 3 Zrotation Xrotation Yrotation
        JOINT right_clavicle
        {
          OFFSET -13.16364 1.694482 -4.693211
          CHANNELS 3 Zrotation Xrotation Yrotation
          JOINT right_humerus
          {
            OFFSET -28.5034 -0.3100689 -2.792744
            CHANNELS 3 Zrotation Xrotation Yrotation
            JOINT right_radius
            {
              OFFSET -25.15693 0.02248979 -1.271978
              CHANNELS 3 Zrotation Xrotation Yrotation
              End Site
              {
                OFFSET -15 0 0
              }
            }
          }
        }
      }
      JOINT left_manubrium
      {
        OFFSET 5.722621 16.35077 3.967754
        CHANNELS 3 Zrotation Xrotation Yrotation
        JOINT left_clavicle
        {
          OFFSET 13.16364 1.694482 -4.693211
          CHANNELS 3 Zrotation Xrotation Yrotation
          JOINT left_humerus
          {
            OFFSET 29.39168 -1.063119 -2.237045
            CHANNELS 3 Zrotation Xrotation Yrotation
            JOINT left_radius
            {
              OFFSET 24.59957 -0.9528479 0.9047498
              CHANNELS 3 Zrotation Xrotation Yrotation
              End Site
              {
                OFFSET 15 -0 -0
              }
            }
          }
        }
      }
    }
  }
}
MOTION
Frames: 11
Frame Time: 0.0416666666667
-1300.463 104.5412 -313.6865 11.61102 8.415246 119.9403 6.909134 9.664763 -3.580871 -0 15.67419 -0 -7.120828 -0.7076414 -1.517656 2.212413 -10.16002 1.167018 -0 23.36555 -0 0.514144 -1.8021 6.115435 2.725656 -7.287375 10.10578 -0.8420293 23.3388 -8.647219 0.2143925 15.29071 -0.6870628 2.101004 -13.92357 -2.752242 -2.586657 -37.74851 15.23518 93.622 -0.3067639 -15.77561 -0 0 36.60552 -29.73284 19.19935 17.76599 0.3373096 -28.70127 -15.94476 -90.33862 8.065903 40.36521 0 0 -29.30662 -5.150668 10.17318 18.37176
-1295.464 104.5391 -318.2736 11.68314 8.314148 119.4446 6.909134 9.664763 -3.580871 -0 15.67419 -0 -7.120828 -0.7076414 -1.517656 2.212413 -10.16002 1.167018 -0 23.36555 -0 0.514144 -1.8021 6.115435 2.725656 -7.287375 10.10578 -0.8420293 23.3388 -8.647219 0.2143925 15.29071 -0.6870628 2.101004 -13.92357 -2.752242 -2.586657 -37.74851 15.23518 93.622 -0.3067639 -15.77561 -0 0 36.60552 -29.73284 19.19935 17.76599 0.3373096 -28.70127 -15.94476 -90.33862 8.065903 40.36521 0 0 -29.30662 -5.150668 10.17318 18.37176
-1290.425 104.537 -322.8168 11.75435 8.212437 118.9491 6.909134 9.664763 -3.580871 -0 15.67419 -0 -7.120828 -0.7076414 -1.517656 2.212413 -10.16002 1.167018 -0 23.36555 -0 0.514144 -1.8021 6.115435 2.725656 -7.287375 10.10578 -0.8420293 23.3388 -8.647219 0.2143925 15.29071 -0.6870628 2.101004 -13.92357 -2.752242 -2.586657 -37.74851 15.23518 93.622 -0.3067639 -15.77561 -0 0 36.60552 -29.73284 19.19935 17.76599 0.3373096 -28.70127 -15.94476 -90.33862 8.065903 40.36521 0 0 -29.30662 -5.150668 10.17318 18.37176
-1285.347 104.535 -327.3158 11.82465 8.11012 118.4539 6.909134 9.664763 -3.580871 -0 15.67419 -0 -7.120828 -0.7076414 -1.517656 2.212413 -10.16002 1.167018 -0 23.36555 -0 0.514144 -1.8021 6.115435 2.725656 -7.287375 10.10578 -0.8420293 23.3388 -8.647219 0.2143925 15.29071 -0.6870628 2.101004 -13.92357 -2.752242 -2.586657 -37.74851 15.23518 93.622 -0.3067639 -15.77561 -0 0 36.60552 -29.73284 19.19935 17.76599 0.3373096 -28.70127 -15.94476 -90.33862 8.065903 40.36521 0 0 -29.30662 -5.150668 10.17318 18.37176
-1280.23 104.5329 -331.7703 11.89404 8.007206 117.9589 6.909134 9.664763 -3.580871 -0 15.67419 -0 -7.120828 -0.7076414 -1.517656 2.212413 -10.16002 1.167018 -0 23.36555 -0 0.514144 -1.8021 6.115435 2.725656 -7.287375 10.10578 -0.8420293 23.3388 -8.647219 0.2143925 15.29071 -0.6870628 2.101004 -13.92357 -2.752242 -2.586657 -37.74851 15.23518 93.622 -0.3067639 -15.77561 -0 0 36.60552 -29.73284 19.19935 17.76599 0.3373096 -28.70127 -15.94476 -90.33862 8.065903 40.36521 0 0 -29.30662 -5.150668 10.17318 18.37176
-1275.074 104.5308 -336.1798 11.96251 7.903702 117.4642 6.909134 9.664763 -3.580871 -0 15.67419 -0 -7.120828 -0.7076414 -1.517656 2.212413 -10.16002 1.167018 -0 23.36555 -0 0.514144 -1.8021 6.115435 2.725656 -7.287375 10.10578 -0.8420293 23.3388 -8.647219 0.2143925 15.29071 -0.6870628 2.101004 -13.92357 -2.752242 -2.586657 -37.74851 15.23518 93.622 -0.3067639 -15.77561 -0 0 36.60552 -29.73284 19.19935 17.76599 0.3373096 -28.70127 -15.94476 -90.33862 8.065903 40.36521 0 0 -29.30662 -5.150668 10.17318 18.37176
-1269.88 104.5288 -340.5442 12.03006 7.799617 116.9697 6.909134 9.664763 -3.580871 -0 15.67419 -0 -7.120828 -0.7076414 -1.517656 2.212413 -10.16002 1.167018 -0 23.36555 -0 0.514144 -1.8021 6.115435 2.725656 -7.287375 10.10578 -0.8420293 23.3388 -8.647219 0.2143925 15.29071 -0.6870628 2.101004 -13.92357 -2.752242 -2.586657 -37.74851 15.23518 93.622 -0.3067639 -15.77561 -0 0 36.60552 -29.73284 19.19935 17.76599 0.3373096 -28.70127 -15.94476 -90.33862 8.065903 40.36521 0 0 -29.30662 -5.150668 10.17318 18.37176
-1264.648 104.5267 -344.8629 12.09669 7.694958 116.4755 6.909134 9.664763 -3.580871 -0 15.67419 -0 -7.120828 -0.7076414 -1.517656 2.212413 -10.16002 1.167018 -0 23.36555 -0 0.514144 -1.8021 6.115435 2.725656 -7.287375 10.10578 -0.8420293 23.3388 -8.647219 0.2143925 15.29071 -0.6870628 2.101004 -13.92357 -2.752242 -2.586657 -37.74851 15.23518 93.622 -0.3067639 -15.77561 -0 0 36.60552 -29.73284 19.19935 17.76599 0.3373096 -28.70127 -15.94476 -90.33862 8.065903 40.36521 0 0 -29.30662 -5.150668 10.17318 18.37176
-1259.378 104.5247 -349.1358 12.16238 7.589734 115.9815 6.909134 9.664763 -3.580871 -0 15.67419 -0 -7.120828 -0.7076414 -1.517656 2.212413 -10.16002 1.167018 -0 23.36555 -0 0.514144 -1.8021 6.115435 2.725656 -7.287375 10.10578 -0.8420293 23.3388 -8.647219 0.2143925 15.29071 -0.6870628 2.101004 -13.92357 -2.752242 -2.586657 -37.74851 15.23518 93.622 -0.3067639 -15.77561 -0 0 36.60552 -29.73284 19.19935 17.76599 0.3373096 -28.70127 -15.94476 -90.33862 8.065903 40.36521 0 0 -29.30662 -5.150668 10.17318 18.37176
-1254.071 104.5226 -353.3625 12.22714 7.483953 115.4878 6.909134 9.664763 -3.580871 -0 15.67419 -0 -7.120828 -0.7076414 -1.517656 2.212413 -10.16002 1.167018 -0 23.36555 -0 0.514144 -1.8021 6.115435 2.725656 -7.287375 10.10578 -0.8420293 23.3388 -8.647219 0.2143925 15.29071 -0.6870628 2.101004 -13.92357 -2.752242 -2.586657 -37.74851 15.23518 93.622 -0.3067639 -15.77561 -0 0 36.60552 -29.73284 19.19935 17.76599 0.3373096 -28.70127 -15.94476 -90.33862 8.065903 40.36521 0 0 -29.30662 -5.150668 10.17318 18.37176
-1248.727 104.5205 -357.5426 12.29097 7.377622 114.9943 6.909134 9.664763 -3.580871 -0 15.67419 -0 -7.120828 -0.7076414 -1.517656 2.212413 -10.16002 1.167018 -0 23.36555 -0 0.514144 -1.8021 6.115435 2.725656 -7.287375 10.10578 -0.8420293 23.3388 -8.647219 0.2143925 15.29071 -0.6870628 2.101004 -13.92357 -2.752242 -2.586657 -37.74851 15.23518 93.622 -0.3067639 -15.77561 -0 0 36.60552 -29.73284 19.19935 17.76599 0.3373096 -28.70127 -15.94476 -90.33862 8.065903 40.36521 0 0 -29.30662 -5.150668 10.17318 18.37176
